<svg xmlns="http://www.w3.org/2000/svg" width="520" height="620" viewBox="0 0 520 620">
  <defs>
    <filter id="s" x="-20%" y="-20%" width="140%" height="140%">
      <feDropShadow dx="0" dy="6" stdDeviation="6" flood-color="#000" flood-opacity="0.35"/>
    </filter>
  </defs>
  <g filter="url(#s)">
    <rect x="32" y="30" width="34" height="540" rx="6" fill="#e6261f"/>
    <polygon points="80,80 180,140 160,520 80,560" fill="#f0f0f0"/>
    <polygon points="440,80 340,140 360,520 440,560" fill="#f0f0f0"/>

    <path d="M260 82 C 208 92, 152 160, 130 244 C 100 360, 152 520, 260 562 C 368 520, 420 360, 390 244 C 368 160, 312 92, 260 82 Z"
          fill="#58d832" stroke="#2f2f2f" stroke-width="10"/>

    <path d="M260 170 C 215 175, 172 230, 160 300 C 145 398, 190 485, 260 518 C 330 485, 375 398, 360 300 C 348 230, 305 175, 260 170 Z"
          fill="#ffd638"/>
    <path d="M260 246 C 230 251, 205 292, 198 342 C 190 410, 220 460, 260 486 C 300 460, 330 410, 322 342 C 315 292, 290 251, 260 246 Z"
          fill="#ff9d1e"/>

    <rect x="256" y="304" width="46" height="158" rx="8" fill="#e6261f"/>
    <rect x="248" y="458" width="30" height="62" rx="8" fill="#d31212"/>

    <rect x="447" y="80" width="28" height="46" rx="5" fill="#e6261f"/>
  </g>
</svg>
